<svg xmlns="http://www.w3.org/2000/svg" width="22" height="22" viewBox="0 0 22 22" fill="none">
    <path d="M21.9375 11C21.9375 11.3481 21.7992 11.6819 21.5531 11.9281C21.3069 12.1742 20.9731 12.3125 20.625 12.3125H12.3125V20.625C12.3125 20.9731 12.1742 21.3069 11.9281 21.5531C11.6819 21.7992 11.3481 21.9375 11 21.9375C10.6519 21.9375 10.3181 21.7992 10.0719 21.5531C9.82578 21.3069 9.6875 20.9731 9.6875 20.625V12.3125H1.375C1.0269 12.3125 0.693064 12.1742 0.446922 11.9281C0.200781 11.6819 0.0625 11.3481 0.0625 11C0.0625 10.6519 0.200781 10.3181 0.446922 10.0719C0.693064 9.82578 1.0269 9.6875 1.375 9.6875H9.6875V1.375C9.6875 1.0269 9.82578 0.693064 10.0719 0.446922C10.3181 0.200781 10.6519 0.0625 11 0.0625C11.3481 0.0625 11.6819 0.200781 11.9281 0.446922C12.1742 0.693064 12.3125 1.0269 12.3125 1.375V9.6875H20.625C20.9731 9.6875 21.3069 9.82578 21.5531 10.0719C21.7992 10.3181 21.9375 10.6519 21.9375 11Z" fill="white"/>
</svg>