<svg xmlns="http://www.w3.org/2000/svg" width="33" height="31" viewBox="0 0 33 31" fill="none">
    <path d="M18.196 2.16167L29.8933 10.6608C30.9054 11.3958 31.3283 12.6981 30.9419 13.8867L26.4735 27.6388C26.2854 28.2181 25.9186 28.7231 25.4258 29.0812C24.9331 29.4393 24.3396 29.6322 23.7304 29.6323H9.26958C8.66042 29.6322 8.06693 29.4393 7.57415 29.0812C7.08138 28.7231 6.71463 28.2181 6.52646 27.6388L2.05813 13.8867C1.86977 13.3072 1.86978 12.6829 2.05815 12.1034C2.24652 11.5238 2.61357 11.0189 3.10667 10.6608L14.804 2.16167C15.2969 1.80337 15.8906 1.61038 16.5 1.61038C17.1094 1.61038 17.7031 1.80337 18.196 2.16167Z" stroke="#2B3138" stroke-width="2" stroke-linecap="round" stroke-linejoin="round"/>
    <path d="M16.5 17.9583C17.6603 17.9583 18.7731 17.4974 19.5936 16.6769C20.4141 15.8565 20.875 14.7437 20.875 13.5833C20.875 12.423 20.4141 11.3102 19.5936 10.4898C18.7731 9.66928 17.6603 9.20834 16.5 9.20834C15.3397 9.20834 14.2269 9.66928 13.4064 10.4898C12.5859 11.3102 12.125 12.423 12.125 13.5833C12.125 14.7437 12.5859 15.8565 13.4064 16.6769C14.2269 17.4974 15.3397 17.9583 16.5 17.9583Z" stroke="#2B3138" stroke-width="2" stroke-linecap="round" stroke-linejoin="round"/>
    <path d="M7.75 29.1919V28.1667C7.75 26.6196 8.36458 25.1359 9.45854 24.0419C10.5525 22.9479 12.0362 22.3333 13.5833 22.3333H19.4167C20.9638 22.3333 22.4475 22.9479 23.5415 24.0419C24.6354 25.1359 25.25 26.6196 25.25 28.1667V29.1977" stroke="#2B3138" stroke-width="2" stroke-linecap="round" stroke-linejoin="round"/>
</svg>