<svg xmlns="http://www.w3.org/2000/svg" width="15" height="15" viewBox="0 0 22 22" fill="none">
    <path d="M2.93375 0.466231L11.0002 8.53189L19.0666 0.490672C19.2255 0.329089 19.4161 0.202215 19.6265 0.118074C19.8368 0.0339329 20.0624 -0.00564461 20.2888 0.00184408C20.7332 0.0305978 21.1519 0.220084 21.4668 0.534922C21.7816 0.849759 21.9711 1.26842 21.9999 1.71274C22.0021 1.9312 21.9599 2.14784 21.8759 2.34951C21.7918 2.55117 21.6677 2.73367 21.511 2.88593L13.4201 11.0005L21.511 19.115C21.8288 19.423 22.0048 19.8483 21.9999 20.2882C21.9711 20.7325 21.7816 21.1512 21.4668 21.466C21.1519 21.7809 20.7332 21.9704 20.2888 21.9991C20.0624 22.0066 19.8368 21.967 19.6265 21.8829C19.4161 21.7987 19.2255 21.6719 19.0666 21.5103L11.0002 13.4691L2.9582 21.5103C2.79938 21.6719 2.60875 21.7987 2.39838 21.8829C2.18801 21.967 1.96246 22.0066 1.73601 21.9991C1.28336 21.9755 0.855483 21.7852 0.534978 21.4647C0.214473 21.1442 0.0240616 20.7164 0.00050031 20.2638C-0.00171137 20.0453 0.0404807 19.8287 0.124517 19.627C0.208553 19.4253 0.332683 19.2428 0.489376 19.0906L8.58027 11.0005L0.464932 2.88593C0.312651 2.73162 0.193039 2.54819 0.113242 2.34662C0.0334457 2.14505 -0.00489865 1.92946 0.00050031 1.71274C0.0292569 1.26842 0.218762 0.849759 0.53363 0.534922C0.848498 0.220084 1.2672 0.0305978 1.71157 0.00184408C1.93626 -0.00882695 2.16074 0.0268997 2.37102 0.106797C2.58129 0.186694 2.77285 0.309048 2.93375 0.466231Z" fill="#8200FF"/>
</svg>