<svg xmlns="http://www.w3.org/2000/svg" width="19" height="20" viewBox="0 0 19 20" fill="none">
    <path d="M15.1854 5.41357H7.35882C6.86044 5.41538 6.38317 5.61502 6.03195 5.96862C5.68073 6.32221 5.4843 6.80081 5.48585 7.29919V17.1145C5.48585 18.1556 6.32455 19.0001 7.35882 19.0001H15.1854C15.6838 18.9983 16.161 18.7987 16.5123 18.4451C16.8635 18.0915 17.0599 17.6129 17.0584 17.1145V7.29919C17.0584 6.25811 16.2197 5.41357 15.1854 5.41357Z" stroke="#8200FF" stroke-width="2" stroke-linecap="round" stroke-linejoin="round"/>
    <path d="M12.5725 5.4134V2.88562C12.5725 2.38551 12.375 1.90584 12.0238 1.55265C11.8504 1.37771 11.6442 1.23881 11.4169 1.14396C11.1896 1.04911 10.9458 1.00018 10.6995 1H2.87297C2.37675 1 1.9 1.19849 1.54973 1.55265C1.19776 1.90702 1.00016 2.38616 1 2.88562V12.701C1 13.2011 1.19751 13.6807 1.54876 14.0339C1.9 14.3881 2.37578 14.5866 2.87297 14.5866H5.4854" stroke="#8200FF" stroke-width="2" stroke-linecap="round" stroke-linejoin="round"/>
</svg>