<svg xmlns="http://www.w3.org/2000/svg" width="27" height="28" viewBox="0 0 27 28" fill="none">
    <mask id="path-1-inside-1_841_780" fill="white">
        <path d="M6.88506 13.4183V7.53858C6.88506 7.18737 7.00861 6.88842 7.2557 6.64173C7.50175 6.39504 7.80119 6.2717 8.15403 6.2717C8.50686 6.2717 8.8063 6.39504 9.05235 6.64173C9.29944 6.88842 9.42299 7.18737 9.42299 7.53858V13.4183C9.42299 13.7706 9.29944 14.0695 9.05235 14.3152C8.80526 14.5618 8.50582 14.6852 8.15403 14.6852C7.80223 14.6852 7.50279 14.5618 7.2557 14.3152C7.00861 14.0685 6.88506 13.7695 6.88506 13.4183ZM13.712 15.4472V1.26688C13.712 0.915668 13.835 0.616717 14.0811 0.37003C14.3282 0.123344 14.6276 0 14.9794 0C15.3322 0 15.6317 0.123344 15.8777 0.37003C16.1248 0.616717 16.2484 0.915668 16.2484 1.26688V15.4472C16.2484 15.8695 16.1185 16.1862 15.8589 16.3974C15.5982 16.6085 15.3066 16.7141 14.9841 16.7141C14.6616 16.7141 14.3685 16.6085 14.1046 16.3974C13.8408 16.1862 13.7099 15.8695 13.712 15.4472ZM0 18.8057V13.8103C0 13.4591 0.123023 13.1601 0.369067 12.9134C0.616159 12.6667 0.916124 12.5434 1.26896 12.5434C1.6218 12.5434 1.92124 12.6667 2.16729 12.9134C2.41333 13.1601 2.53635 13.4591 2.53635 13.8103V18.8073C2.53635 19.2296 2.40653 19.5458 2.14687 19.7559C1.88722 19.967 1.59563 20.0726 1.2721 20.0726C0.949628 20.0726 0.656468 19.967 0.392624 19.7559C0.130875 19.5458 0 19.2296 0 18.8073M1.70399 28C1.35325 28 1.11087 27.8406 0.976849 27.5218C0.842834 27.204 0.90356 26.9171 1.15903 26.661L7.29653 20.5351C7.52373 20.3072 7.8038 20.1802 8.13675 20.1541C8.4697 20.128 8.76547 20.2288 9.02408 20.4567L13.712 24.4784L24.3176 13.8887H21.5033C21.2802 13.8887 21.0939 13.8134 20.9442 13.6629C20.7944 13.5124 20.7191 13.3258 20.718 13.1031C20.717 12.8805 20.7923 12.6944 20.9442 12.545C21.096 12.3955 21.2823 12.3208 21.5033 12.3208H25.731C26.0912 12.3208 26.3927 12.442 26.6356 12.6845C26.8785 12.927 27 13.2281 27 13.5876V17.8085C27 18.0311 26.9246 18.2172 26.7739 18.3667C26.6231 18.5161 26.4362 18.5914 26.2132 18.5925C25.9902 18.5935 25.8038 18.5182 25.6541 18.3667C25.5044 18.2151 25.4295 18.029 25.4295 17.8085V14.9988L14.5868 25.8237C14.3596 26.0505 14.0795 26.177 13.7466 26.2032C13.4136 26.2293 13.1178 26.1284 12.8592 25.9006L8.1713 21.8788L2.27094 27.7711C2.20393 27.8338 2.11965 27.8876 2.01809 27.9326C1.91653 27.9775 1.81183 28 1.70399 28Z"/>
    </mask>
    <path d="M7.2557 6.64173L7.96223 7.34942L7.96373 7.34791L7.2557 6.64173ZM9.05235 6.64173L8.34432 7.34792L8.34582 7.34942L9.05235 6.64173ZM9.05235 14.3152L8.34733 13.606L8.34582 13.6075L9.05235 14.3152ZM13.712 15.4472L14.712 15.4522V15.4472H13.712ZM14.0811 0.37003L13.3746 -0.337658L13.3731 -0.336154L14.0811 0.37003ZM15.8777 0.37003L15.1697 1.07622L15.1712 1.07772L15.8777 0.37003ZM15.8589 16.3974L16.4883 17.1745L16.4898 17.1732L15.8589 16.3974ZM0.369067 12.9134L-0.337461 12.2057L-0.33896 12.2072L0.369067 12.9134ZM2.14687 19.7559L1.51784 18.9785L1.51596 18.98L2.14687 19.7559ZM0.392624 19.7559L-0.233346 20.5357L-0.232201 20.5366L0.392624 19.7559ZM1.70399 28V27V28ZM0.976849 27.5218L1.89871 27.1343L1.89826 27.1332L0.976849 27.5218ZM1.15903 26.661L0.45259 25.9532L0.451055 25.9548L1.15903 26.661ZM7.29653 20.5351L8.00297 21.2429L8.00469 21.2412L7.29653 20.5351ZM9.02408 20.4567L8.36291 21.2071L8.37296 21.2157L9.02408 20.4567ZM13.712 24.4784L13.0609 25.2374L13.7635 25.8402L14.4186 25.1861L13.712 24.4784ZM24.3176 13.8887L25.0242 14.5963L26.7344 12.8887H24.3176V13.8887ZM25.4295 14.9988H26.4295V12.5874L24.723 14.2911L25.4295 14.9988ZM14.5868 25.8237L15.2933 26.5314L15.2933 26.5314L14.5868 25.8237ZM12.8592 25.9006L13.5204 25.1502L13.5104 25.1416L12.8592 25.9006ZM8.1713 21.8788L8.82242 21.1198L8.11976 20.517L7.46468 21.1712L8.1713 21.8788ZM2.27094 27.7711L2.95428 28.5012L2.9661 28.4901L2.97756 28.4787L2.27094 27.7711ZM7.88506 13.4183V7.53858H5.88506V13.4183H7.88506ZM7.88506 7.53858C7.88506 7.4511 7.90427 7.40728 7.96223 7.34942L6.54917 5.93404C6.11295 6.36956 5.88506 6.92363 5.88506 7.53858H7.88506ZM7.96373 7.34791C8.0195 7.29199 8.06306 7.2717 8.15403 7.2717V5.2717C7.53931 5.2717 6.98399 5.49809 6.54767 5.93554L7.96373 7.34791ZM8.15403 7.2717C8.24499 7.2717 8.28855 7.29199 8.34432 7.34791L9.76038 5.93554C9.32406 5.49809 8.76874 5.2717 8.15403 5.2717V7.2717ZM8.34582 7.34942C8.40378 7.40728 8.42299 7.4511 8.42299 7.53858H10.423C10.423 6.92363 10.1951 6.36956 9.75888 5.93404L8.34582 7.34942ZM8.42299 7.53858V13.4183H10.423V7.53858H8.42299ZM8.42299 13.4183C8.42299 13.5076 8.40328 13.5503 8.34733 13.606L9.75737 15.0243C10.1956 14.5887 10.423 14.0335 10.423 13.4183H8.42299ZM8.34582 13.6075C8.28781 13.6654 8.24313 13.6852 8.15403 13.6852V15.6852C8.7685 15.6852 9.32271 15.4583 9.75888 15.0228L8.34582 13.6075ZM8.15403 13.6852C8.06492 13.6852 8.02024 13.6654 7.96223 13.6075L6.54917 15.0228C6.98534 15.4583 7.53955 15.6852 8.15403 15.6852V13.6852ZM7.96223 13.6075C7.90427 13.5496 7.88506 13.5058 7.88506 13.4183H5.88506C5.88506 14.0333 6.11295 14.5873 6.54917 15.0228L7.96223 13.6075ZM14.712 15.4472V1.26688H12.712V15.4472H14.712ZM14.712 1.26688C14.712 1.17804 14.7317 1.13375 14.7891 1.07622L13.3731 -0.336154C12.9384 0.0996796 12.712 0.653294 12.712 1.26688H14.712ZM14.7876 1.07772C14.8456 1.0198 14.8903 1 14.9794 1V-1C14.3649 -1 13.8107 -0.773109 13.3746 -0.337656L14.7876 1.07772ZM14.9794 1C15.0704 1 15.1139 1.0203 15.1697 1.07622L16.5858 -0.336154C16.1494 -0.773609 15.5941 -1 14.9794 -1V1ZM15.1712 1.07772C15.2292 1.13558 15.2484 1.1794 15.2484 1.26688H17.2484C17.2484 0.651931 17.0205 0.0978566 16.5843 -0.337656L15.1712 1.07772ZM15.2484 1.26688V15.4472H17.2484V1.26688H15.2484ZM15.2484 15.4472C15.2484 15.5577 15.2312 15.6087 15.2257 15.6222C15.2231 15.6285 15.2223 15.6286 15.2246 15.6255C15.227 15.6223 15.2289 15.6208 15.228 15.6215L16.4898 17.1732C17.0423 16.7239 17.2484 16.0846 17.2484 15.4472H15.2484ZM15.2295 15.6203C15.1391 15.6935 15.0677 15.7141 14.9841 15.7141V17.7141C15.5455 17.7141 16.0573 17.5235 16.4883 17.1745L15.2295 15.6203ZM14.9841 15.7141C14.9002 15.7141 14.8251 15.6932 14.7295 15.6166L13.4798 17.1781C13.9118 17.5239 14.4231 17.7141 14.9841 17.7141V15.7141ZM14.7295 15.6166C14.728 15.6154 14.7299 15.6168 14.7326 15.6204C14.7352 15.6239 14.7349 15.6246 14.7328 15.6196C14.7283 15.6088 14.7115 15.5605 14.712 15.4522L12.712 15.4422C12.7088 16.0862 12.9189 16.7293 13.4798 17.1781L14.7295 15.6166ZM1 18.8057V13.8103H-1V18.8057H1ZM1 13.8103C1 13.7214 1.01971 13.6772 1.07709 13.6196L-0.33896 12.2072C-0.773661 12.6431 -1 13.1967 -1 13.8103H1ZM1.07559 13.6211C1.13299 13.5638 1.17792 13.5434 1.26896 13.5434V11.5434C0.654333 11.5434 0.0993325 11.7697 -0.33746 12.2057L1.07559 13.6211ZM1.26896 13.5434C1.35992 13.5434 1.40349 13.5637 1.45926 13.6196L2.87532 12.2072C2.439 11.7698 1.88368 11.5434 1.26896 11.5434V13.5434ZM1.45926 13.6196C1.51665 13.6771 1.53635 13.7214 1.53635 13.8103H3.53635C3.53635 13.1967 3.31002 12.6431 2.87532 12.2072L1.45926 13.6196ZM1.53635 13.8103V18.8073H3.53635V13.8103H1.53635ZM1.53635 18.8073C1.53635 18.9178 1.51919 18.9685 1.51392 18.9813C1.51146 18.9873 1.51087 18.987 1.51344 18.9835C1.51609 18.9799 1.51835 18.9781 1.51785 18.9785L2.7759 20.5332C3.33035 20.0846 3.53635 19.4444 3.53635 18.8073H1.53635ZM1.51596 18.98C1.42794 19.0516 1.35737 19.0726 1.2721 19.0726V21.0726C1.83388 21.0726 2.34649 20.8824 2.77778 20.5317L1.51596 18.98ZM1.2721 19.0726C1.18822 19.0726 1.11312 19.0517 1.01745 18.9751L-0.232201 20.5366C0.199813 20.8823 0.711034 21.0726 1.2721 21.0726V19.0726ZM1.01859 18.976C1.01765 18.9752 1.01975 18.9769 1.02238 18.9804C1.02496 18.9839 1.02448 18.9844 1.02214 18.9787C1.01714 18.9666 1 18.917 1 18.8073H-1C-1 19.4472 -0.791085 20.088 -0.233345 20.5357L1.01859 18.976ZM1.70399 27C1.68263 27 1.73528 26.9967 1.80863 27.0449C1.88298 27.0938 1.90384 27.1465 1.89871 27.1343L0.0549861 27.9093C0.183872 28.2159 0.392937 28.5077 0.709666 28.716C1.0254 28.9236 1.3746 29 1.70399 29V27ZM1.89826 27.1332C1.89619 27.1283 1.90219 27.1409 1.90559 27.1689C1.90914 27.1983 1.90867 27.2354 1.90021 27.2753C1.88213 27.3607 1.84377 27.3905 1.867 27.3672L0.451055 25.9548C0.218818 26.1876 0.0223555 26.4889 -0.0564476 26.8612C-0.13611 27.2376 -0.0765772 27.5974 0.0554418 27.9104L1.89826 27.1332ZM1.86546 27.3688L8.00297 21.2429L6.5901 19.8273L0.452591 25.9532L1.86546 27.3688ZM8.00469 21.2412C8.05652 21.1892 8.11017 21.1593 8.215 21.151L8.0585 19.1572C7.49744 19.2012 6.99094 19.4253 6.58838 19.8291L8.00469 21.2412ZM8.215 21.151C8.26871 21.1468 8.3 21.1515 8.36297 21.207L9.68519 19.7064C9.23095 19.3062 8.67068 19.1091 8.0585 19.1572L8.215 21.151ZM8.37296 21.2157L13.0609 25.2374L14.3631 23.7195L9.6752 19.6977L8.37296 21.2157ZM14.4186 25.1861L25.0242 14.5963L23.611 13.181L13.0054 23.7708L14.4186 25.1861ZM24.3176 12.8887H21.5033V14.8887H24.3176V12.8887ZM21.5033 12.8887C21.506 12.8887 21.5325 12.8896 21.5707 12.905C21.6098 12.9208 21.6381 12.9426 21.6531 12.9577L20.2352 14.3681C20.5829 14.7177 21.0291 14.8887 21.5033 14.8887V12.8887ZM21.6531 12.9577C21.6671 12.9717 21.6875 12.9984 21.7025 13.0355C21.7171 13.0716 21.718 13.0965 21.718 13.0984L19.718 13.1079C19.7202 13.5789 19.8904 14.0215 20.2352 14.3681L21.6531 12.9577ZM21.718 13.0984C21.718 13.1032 21.7169 13.1319 21.7006 13.1721C21.6839 13.2133 21.6611 13.2424 21.6458 13.2575L20.2426 11.8324C19.8892 12.1803 19.7158 12.6293 19.718 13.1079L21.718 13.0984ZM21.6458 13.2575C21.6331 13.27 21.6072 13.29 21.57 13.305C21.5335 13.3196 21.5075 13.3208 21.5033 13.3208V11.3208C21.0306 11.3208 20.589 11.4913 20.2426 11.8324L21.6458 13.2575ZM21.5033 13.3208H25.731V11.3208H21.5033V13.3208ZM25.731 13.3208C25.8408 13.3208 25.8837 13.3469 25.9291 13.3922L27.3422 11.9768C26.9017 11.5371 26.3416 11.3208 25.731 11.3208V13.3208ZM25.9291 13.3922C25.9744 13.4374 26 13.4795 26 13.5876H28C28 12.9766 27.7827 12.4166 27.3422 11.9768L25.9291 13.3922ZM26 13.5876V17.8085H28V13.5876H26ZM26 17.8085C26 17.8051 26.001 17.7781 26.0166 17.7395C26.0327 17.6999 26.0547 17.6715 26.0698 17.6565L27.4779 19.0768C27.8281 18.7296 28 18.2834 28 17.8085H26ZM26.0698 17.6565C26.0838 17.6426 26.1104 17.6224 26.1471 17.6076C26.164 17.6008 26.179 17.5968 26.1907 17.5946C26.2022 17.5925 26.2085 17.5925 26.2085 17.5925L26.2179 19.5924C26.6883 19.5902 27.1308 19.4209 27.4779 19.0768L26.0698 17.6565ZM26.2085 17.5925C26.2126 17.5924 26.2408 17.5935 26.2806 17.6095C26.3214 17.626 26.3504 17.6486 26.3655 17.6639L24.9427 19.0694C25.2911 19.4221 25.74 19.5947 26.2179 19.5924L26.2085 17.5925ZM26.3655 17.6639C26.378 17.6766 26.3982 17.7026 26.4134 17.7402C26.4282 17.7771 26.4295 17.8037 26.4295 17.8085H24.4295C24.4295 18.2818 24.6009 18.7235 24.9427 19.0694L26.3655 17.6639ZM26.4295 17.8085V14.9988H24.4295V17.8085H26.4295ZM24.723 14.2911L13.8803 25.116L15.2933 26.5314L26.136 15.7065L24.723 14.2911ZM13.8803 25.116C13.8287 25.1676 13.7745 25.1979 13.6683 25.2062L13.8248 27.2001C14.3845 27.1562 14.8905 26.9335 15.2933 26.5314L13.8803 25.116ZM13.6683 25.2062C13.6146 25.2104 13.5833 25.2057 13.5203 25.1503L12.1981 26.6508C12.6524 27.0511 13.2126 27.2481 13.8248 27.2001L13.6683 25.2062ZM13.5104 25.1416L8.82242 21.1198L7.52018 22.6378L12.2081 26.6595L13.5104 25.1416ZM7.46468 21.1712L1.56432 27.0635L2.97756 28.4787L8.87792 22.5864L7.46468 21.1712ZM1.5876 27.041C1.61761 27.0129 1.63324 27.0093 1.61338 27.0181L2.4228 28.847C2.60606 28.7659 2.79025 28.6547 2.95428 28.5012L1.5876 27.041ZM1.61338 27.0181C1.62289 27.0139 1.6365 27.0091 1.65353 27.0054C1.67065 27.0017 1.68787 27 1.70399 27L1.70399 29C1.95542 29 2.19767 28.9467 2.4228 28.847L1.61338 27.0181Z" fill="black" mask="url(#path-1-inside-1_841_780)"/>
</svg>