<svg xmlns="http://www.w3.org/2000/svg" width="29" height="29" viewBox="0 0 29 29" fill="none">
    <path d="M27.625 17.4167L23.25 13.0417H13.0417C12.6549 13.0417 12.284 12.888 12.0105 12.6145C11.737 12.341 11.5833 11.9701 11.5833 11.5833V2.83333C11.5833 2.44656 11.737 2.07563 12.0105 1.80214C12.284 1.52865 12.6549 1.375 13.0417 1.375H26.1667C26.5534 1.375 26.9244 1.52865 27.1979 1.80214C27.4714 2.07563 27.625 2.44656 27.625 2.83333V17.4167Z" stroke="#2B3138" stroke-width="2" stroke-linecap="round" stroke-linejoin="round"/>
    <path d="M17.4167 18.875V21.7917C17.4167 22.1785 17.263 22.5494 16.9895 22.8229C16.716 23.0964 16.3451 23.25 15.9583 23.25H5.75L1.375 27.625V13.0417C1.375 12.6549 1.52865 12.284 1.80214 12.0105C2.07563 11.737 2.44656 11.5833 2.83333 11.5833H5.75" stroke="#2B3138" stroke-width="2" stroke-linecap="round" stroke-linejoin="round"/>
</svg>