<svg xmlns="http://www.w3.org/2000/svg" width="14" height="15" viewBox="0 0 14 15" fill="none">
    <path d="M12.6 0.666748C12.9713 0.666748 13.3274 0.814248 13.5899 1.0768C13.8525 1.33935 14 1.69544 14 2.06675V10.4667C14 10.8381 13.8525 11.1941 13.5899 11.4567C13.3274 11.7192 12.9713 11.8667 12.6 11.8667H10.5V13.2667C10.5 13.6381 10.3525 13.9941 10.0899 14.2567C9.8274 14.5192 9.4713 14.6667 9.1 14.6667H1.4C1.0287 14.6667 0.672601 14.5192 0.41005 14.2567C0.1475 13.9941 0 13.6381 0 13.2667V5.56675C0 5.19544 0.1475 4.83935 0.41005 4.5768C0.672601 4.31425 1.0287 4.16675 1.4 4.16675H2.8V2.06675C2.8 1.69544 2.9475 1.33935 3.21005 1.0768C3.4726 0.814248 3.8287 0.666748 4.2 0.666748H12.6ZM2.8 5.56675H1.4V13.2667H9.1V11.8667H4.2C3.8287 11.8667 3.4726 11.7192 3.21005 11.4567C2.9475 11.1941 2.8 10.8381 2.8 10.4667V5.56675ZM12.6 2.06675H4.2V10.4667H12.6V2.06675ZM11.123 4.32985C11.2542 4.46112 11.328 4.63913 11.328 4.82475C11.328 5.01036 11.2542 5.18838 11.123 5.31965L8.2019 8.24005C8.13039 8.31159 8.04549 8.36834 7.95205 8.40706C7.85861 8.44577 7.75845 8.4657 7.6573 8.4657C7.55615 8.4657 7.45599 8.44577 7.36255 8.40706C7.26911 8.36834 7.18421 8.31159 7.1127 8.24005L5.6777 6.80505C5.54635 6.67379 5.47252 6.49573 5.47246 6.31005C5.47239 6.12436 5.54609 5.94625 5.67735 5.8149C5.80861 5.68355 5.98666 5.60972 6.17235 5.60966C6.35804 5.60959 6.53615 5.68329 6.6675 5.81455L7.6573 6.80435L10.1325 4.32985C10.2638 4.19862 10.4418 4.1249 10.6274 4.1249C10.813 4.1249 10.9917 4.19862 11.123 4.32985Z" fill="#8200FF"/>
</svg>