<svg xmlns="http://www.w3.org/2000/svg" width="18" height="18" viewBox="0 0 18 18" fill="none">
    <path d="M16.2023 1.636C16.5792 2.01106 16.791 2.51967 16.791 3.05C16.791 3.58033 16.5792 4.08894 16.2023 4.464C16.6328 5.66013 16.728 6.95028 16.4776 8.19611C16.2272 9.44195 15.6406 10.5965 14.7807 11.536L12.6474 13.656C12.2589 14.1489 11.9922 14.7256 11.8687 15.3398C11.7452 15.954 11.7685 16.5884 11.9366 17.192L0.563232 5.88C1.1699 6.04705 1.80752 6.07011 2.42478 5.94731C3.04204 5.82452 3.6217 5.5593 4.1171 5.173L6.24942 3.05C7.19393 2.19472 8.35465 1.61125 9.60714 1.36215C10.8596 1.11305 12.1567 1.20772 13.3592 1.636C13.7362 1.26106 14.2476 1.05043 14.7807 1.05043C15.3139 1.05043 15.8252 1.26106 16.2023 1.636Z" stroke="#FF4200" stroke-linecap="round" stroke-linejoin="round"/>
    <path d="M4.11705 9.414L3.40627 10.121C2.84061 10.6837 2.52283 11.4468 2.52283 12.2425C2.52283 13.0382 2.84061 13.8013 3.40627 14.364C3.97193 14.9267 4.73913 15.2428 5.5391 15.2428C6.33906 15.2428 7.10626 14.9267 7.67192 14.364L8.3827 13.657" stroke="#FF4200" stroke-linecap="round" stroke-linejoin="round"/>
</svg>