<svg xmlns="http://www.w3.org/2000/svg" width="14" height="17" viewBox="0 0 14 17" fill="none">
    <path d="M12.0311 1.41656e-08C12.53 -5.83516e-05 13.0103 0.180246 13.375 0.504474C13.7397 0.828703 13.9615 1.27268 13.9956 1.74667L14 1.875V14.79C14.0001 15.2651 13.8107 15.7225 13.4703 16.0698C13.1298 16.4171 12.6636 16.6283 12.1659 16.6608L12.0311 16.665H1.968C1.46926 16.6648 0.989162 16.4844 0.624685 16.1602C0.260208 15.836 0.0385114 15.3922 0.0043754 14.9183L2.3205e-08 14.79V1.875C-7.65043e-05 1.40003 0.189134 0.94273 0.529411 0.595474C0.869689 0.248218 1.33567 0.0368868 1.83324 0.00416658L1.968 1.41656e-08H12.0311ZM12.0311 1.25H1.968C1.80941 1.25001 1.65618 1.3047 1.53666 1.40397C1.41713 1.50324 1.3394 1.64037 1.31783 1.79L1.31171 1.875V14.79C1.31171 15.1067 1.55847 15.3683 1.87874 15.4092L1.968 15.415H12.0311C12.1897 15.415 12.3429 15.3603 12.4625 15.261C12.582 15.1618 12.6597 15.0246 12.6813 14.875L12.6874 14.79V1.875C12.6874 1.72397 12.63 1.57805 12.5257 1.46422C12.4215 1.3504 12.2775 1.27637 12.1204 1.25583L12.0311 1.25ZM7.89562 11.6867C7.72379 11.6606 7.56984 11.5707 7.46761 11.4366C7.36539 11.3026 7.32325 11.1353 7.35046 10.9717L7.44147 10.4217H6.14551L6.02125 11.1675C6.0097 11.2502 5.98089 11.3298 5.93653 11.4017C5.89216 11.4736 5.83314 11.5363 5.76293 11.5862C5.69272 11.636 5.61275 11.672 5.52772 11.6919C5.44269 11.7119 5.35433 11.7154 5.26784 11.7023C5.18136 11.6893 5.09849 11.6598 5.02412 11.6158C4.94976 11.5718 4.8854 11.514 4.83484 11.4459C4.78428 11.3778 4.74854 11.3008 4.72973 11.2193C4.71092 11.1379 4.70941 11.0537 4.7253 10.9717L4.8163 10.4217H4.16001C3.98595 10.4217 3.81902 10.3558 3.69594 10.2386C3.57286 10.1214 3.50372 9.96243 3.50372 9.79667C3.50372 9.63091 3.57286 9.47193 3.69594 9.35472C3.81902 9.23751 3.98595 9.17167 4.16001 9.17167H5.02456L5.23195 7.92167H4.59841C4.42435 7.92167 4.25742 7.85582 4.13435 7.73861C4.01127 7.6214 3.94212 7.46243 3.94212 7.29667C3.94212 7.13091 4.01127 6.97193 4.13435 6.85472C4.25742 6.73751 4.42435 6.67167 4.59841 6.67167H5.44109L5.6161 5.62167C5.64995 5.46394 5.7464 5.32473 5.88536 5.23305C6.02432 5.14137 6.19507 5.10429 6.36202 5.12954C6.52898 5.15478 6.67927 5.24041 6.78157 5.36857C6.88388 5.49673 6.9303 5.65754 6.91118 5.8175L6.76855 6.67H8.06538L8.24039 5.62083C8.27424 5.4631 8.37069 5.3239 8.50965 5.23222C8.64861 5.14054 8.81935 5.10346 8.98631 5.1287C9.15327 5.15395 9.30356 5.23957 9.40586 5.36774C9.50817 5.4959 9.55459 5.65671 9.53547 5.81667L9.39371 6.67H9.84874C10.0228 6.67 10.1897 6.73585 10.3128 6.85306C10.4359 6.97027 10.505 7.12924 10.505 7.295C10.505 7.46076 10.4359 7.61973 10.3128 7.73694C10.1897 7.85415 10.0228 7.92 9.84874 7.92H9.18632L8.97806 9.17H9.41034C9.5844 9.17 9.75133 9.23585 9.87441 9.35306C9.99748 9.47027 10.0666 9.62924 10.0666 9.795C10.0666 9.96076 9.99748 10.1197 9.87441 10.2369C9.75133 10.3542 9.5844 10.42 9.41034 10.42H8.77067L8.64642 11.1667C8.6191 11.3303 8.52466 11.4769 8.38387 11.5743C8.24309 11.6716 8.06746 11.7117 7.89562 11.6858M6.56116 7.92L6.3529 9.17H7.64973L7.85712 7.92H6.56116Z" fill="#8200FF"/>
</svg>