<svg xmlns="http://www.w3.org/2000/svg" width="16" height="16" viewBox="0 0 16 16" fill="none">
    <path d="M8 15C11.8659 15 15 11.8659 15 8C15 4.13409 11.8659 1 8 1C4.13409 1 1 4.13409 1 8C1 11.8659 4.13409 15 8 15ZM8 8.63636C8.16877 8.63636 8.33064 8.56932 8.44998 8.44998C8.56932 8.33064 8.63636 8.16877 8.63636 8C8.63636 7.83123 8.56932 7.66936 8.44998 7.55002C8.33064 7.43068 8.16877 7.36364 8 7.36364C7.83123 7.36364 7.66936 7.43068 7.55002 7.55002C7.43068 7.66936 7.36364 7.83123 7.36364 8C7.36364 8.16877 7.43068 8.33064 7.55002 8.44998C7.66936 8.56932 7.83123 8.63636 8 8.63636ZM8 9.90909C8.50632 9.90909 8.99191 9.70796 9.34993 9.34993C9.70796 8.99191 9.90909 8.50632 9.90909 8C9.90909 7.49368 9.70796 7.00809 9.34993 6.65007C8.99191 6.29204 8.50632 6.09091 8 6.09091C7.49368 6.09091 7.00809 6.29204 6.65007 6.65007C6.29204 7.00809 6.09091 7.49368 6.09091 8C6.09091 8.50632 6.29204 8.99191 6.65007 9.34993C7.00809 9.70796 7.49368 9.90909 8 9.90909ZM8 11.1818C8.84387 11.1818 9.65318 10.8466 10.2499 10.2499C10.8466 9.65318 11.1818 8.84387 11.1818 8C11.1818 7.15613 10.8466 6.34682 10.2499 5.75011C9.65318 5.15341 8.84387 4.81818 8 4.81818C7.15613 4.81818 6.34682 5.15341 5.75011 5.75011C5.15341 6.34682 4.81818 7.15613 4.81818 8C4.81818 8.84387 5.15341 9.65318 5.75011 10.2499C6.34682 10.8466 7.15613 11.1818 8 11.1818Z" stroke="#8200FF" stroke-width="1.66667"/>
</svg>