<svg xmlns="http://www.w3.org/2000/svg" width="35" height="36" viewBox="0 0 35 36" fill="none">
    <path d="M12.9784 2.40306C13.5672 1.8005 14.2705 1.3217 15.047 0.994802C15.8235 0.667907 16.6575 0.499512 17.4999 0.499512C18.3424 0.499512 19.1764 0.667907 19.9529 0.994802C20.7294 1.3217 21.4327 1.8005 22.0215 2.40306L23.3821 3.79869L25.329 3.77463C26.1717 3.76465 27.008 3.92328 27.7885 4.24119C28.569 4.5591 29.2781 5.02987 29.8741 5.62582C30.47 6.22176 30.9408 6.93085 31.2587 7.71139C31.5766 8.49192 31.7352 9.32814 31.7253 10.1709L31.7034 12.1178L33.0946 13.4784C33.6972 14.0672 34.176 14.7705 34.5029 15.547C34.8298 16.3235 34.9982 17.1575 34.9982 17.9999C34.9982 18.8424 34.8298 19.6764 34.5029 20.4529C34.176 21.2294 33.6972 21.9327 33.0946 22.5215L31.7012 23.8821L31.7253 25.829C31.7352 26.6717 31.5766 27.508 31.2587 28.2885C30.9408 29.069 30.47 29.7781 29.8741 30.3741C29.2781 30.97 28.569 31.4408 27.7885 31.7587C27.008 32.0766 26.1717 32.2352 25.329 32.2253L23.3821 32.2034L22.0215 33.5946C21.4327 34.1972 20.7294 34.676 19.9529 35.0029C19.1764 35.3298 18.3424 35.4982 17.4999 35.4982C16.6575 35.4982 15.8235 35.3298 15.047 35.0029C14.2705 34.676 13.5672 34.1972 12.9784 33.5946L11.6178 32.2012L9.67089 32.2253C8.82815 32.2352 7.99193 32.0766 7.2114 31.7587C6.43086 31.4408 5.72177 30.97 5.12583 30.3741C4.52988 29.7781 4.05911 29.069 3.7412 28.2885C3.42329 27.508 3.26466 26.6717 3.27464 25.829L3.29651 23.8821L1.90526 22.5215C1.30269 21.9327 0.823894 21.2294 0.496999 20.4529C0.170104 19.6764 0.00170898 18.8424 0.00170898 17.9999C0.00170898 17.1575 0.170104 16.3235 0.496999 15.547C0.823894 14.7705 1.30269 14.0672 1.90526 13.4784L3.2987 12.1178L3.27464 10.1709C3.26466 9.32814 3.42329 8.49192 3.7412 7.71139C4.05911 6.93085 4.52988 6.22176 5.12583 5.62582C5.72177 5.02987 6.43086 4.5591 7.2114 4.24119C7.99193 3.92328 8.82815 3.76465 9.67089 3.77463L11.6178 3.7965L12.9784 2.40306ZM15.3168 24.5624C15.3168 24.8497 15.3734 25.1342 15.4833 25.3996C15.5933 25.665 15.7544 25.9061 15.9575 26.1092C16.1607 26.3124 16.4018 26.4735 16.6672 26.5834C16.9326 26.6934 17.2171 26.7499 17.5043 26.7499C17.7916 26.7499 18.076 26.6934 18.3414 26.5834C18.6068 26.4735 18.848 26.3124 19.0511 26.1092C19.2542 25.9061 19.4154 25.665 19.5253 25.3996C19.6352 25.1342 19.6918 24.8497 19.6918 24.5624C19.6918 23.9823 19.4614 23.4259 19.0511 23.0156C18.6409 22.6054 18.0845 22.3749 17.5043 22.3749C16.9242 22.3749 16.3678 22.6054 15.9575 23.0156C15.5473 23.4259 15.3168 23.9823 15.3168 24.5624ZM18.8212 20.1284C18.9087 18.9603 19.2543 18.3456 20.6718 17.3721C22.1462 16.3331 22.9687 14.9878 22.9687 13.0278C22.9687 10.1293 20.9562 8.15619 18.0206 8.15619C15.7893 8.15619 14.1006 9.23244 13.4268 10.9781C13.222 11.4546 13.1192 11.9688 13.1249 12.4874C13.1249 13.3471 13.569 13.8874 14.3171 13.8874C14.9121 13.8874 15.3124 13.5659 15.5509 12.7718C15.8965 11.4768 16.6993 10.7703 17.9003 10.7703C19.2346 10.7703 20.1534 11.7459 20.1534 13.1415C20.1534 14.3731 19.6984 15.0774 18.3553 16.0399C17.0012 16.9871 16.3296 18.0393 16.3296 19.6274V19.8703C16.3296 20.8065 16.7846 21.4999 17.6093 21.4999C18.3443 21.4999 18.7118 20.9749 18.8212 20.1284Z" fill="#FF4200"/>
</svg>
