<svg xmlns="http://www.w3.org/2000/svg" width="25" height="25" viewBox="0 0 25 25" fill="none">
    <path d="M8.58333 4.75H4.20833C3.43479 4.75 2.69292 5.05729 2.14594 5.60427C1.59896 6.15125 1.29167 6.89312 1.29167 7.66667V20.7917C1.29167 21.5652 1.59896 22.3071 2.14594 22.8541C2.69292 23.401 3.43479 23.7083 4.20833 23.7083H17.3333C18.1069 23.7083 18.8487 23.401 19.3957 22.8541C19.9427 22.3071 20.25 21.5652 20.25 20.7917V16.4167" stroke="#2B3138" stroke-width="2" stroke-linecap="round" stroke-linejoin="round"/>
    <path d="M14.4167 6.20834C14.4167 7.36867 14.8776 8.48146 15.6981 9.30194C16.5185 10.1224 17.6313 10.5833 18.7917 10.5833C19.952 10.5833 21.0648 10.1224 21.8853 9.30194C22.7057 8.48146 23.1667 7.36867 23.1667 6.20834C23.1667 5.04802 22.7057 3.93522 21.8853 3.11475C21.0648 2.29428 19.952 1.83334 18.7917 1.83334C17.6313 1.83334 16.5185 2.29428 15.6981 3.11475C14.8776 3.93522 14.4167 5.04802 14.4167 6.20834Z" stroke="#2B3138" stroke-width="2" stroke-linecap="round" stroke-linejoin="round"/>
</svg>