<svg xmlns="http://www.w3.org/2000/svg" width="16" height="16" viewBox="0 0 16 16" fill="none">
    <path d="M1 4.33333V2.66667C1 2.22464 1.18437 1.80072 1.51256 1.48816C1.84075 1.17559 2.28587 1 2.75 1H4.5M1 11V12.6667C1 13.1087 1.18437 13.5326 1.51256 13.8452C1.84075 14.1577 2.28587 14.3333 2.75 14.3333H4.5M11.5 1H13.25C13.7141 1 14.1592 1.17559 14.4874 1.48816C14.8156 1.80072 15 2.22464 15 2.66667V4.33333M11.5 14.3333H13.25C13.7141 14.3333 14.1592 14.1577 14.4874 13.8452C14.8156 13.5326 15 13.1087 15 12.6667V11M8 11V5.16667M5.375 5.16667H10.625" stroke="#8200FF" stroke-width="1.66667" stroke-linecap="round" stroke-linejoin="round"/>
</svg>