<svg xmlns="http://www.w3.org/2000/svg" width="14" height="13" viewBox="0 0 14 13" fill="none">
    <path d="M14 6.50079C14 7.77018 13.6157 9.01179 12.8944 10.0723C12.1731 11.1329 11.1465 11.9659 9.94125 12.4686C8.73602 12.9714 7.40494 13.1217 6.11236 12.9011C4.81977 12.6806 3.62227 12.0987 2.6677 11.2275C2.6142 11.1786 2.57118 11.12 2.5411 11.055C2.51102 10.99 2.49447 10.92 2.49239 10.8488C2.49031 10.7776 2.50274 10.7068 2.52898 10.6403C2.55522 10.5738 2.59474 10.5129 2.6453 10.4611C2.74741 10.3566 2.88826 10.2957 3.03686 10.2916C3.11044 10.2896 3.18371 10.3016 3.25249 10.327C3.32126 10.3524 3.3842 10.3906 3.4377 10.4395C4.23832 11.17 5.24377 11.6561 6.32841 11.8371C7.41306 12.018 8.52881 11.8859 9.53625 11.4571C10.5437 11.0284 11.3981 10.322 11.9928 9.42623C12.5875 8.53049 12.8961 7.48513 12.88 6.42076C12.8639 5.35638 12.5238 4.3202 11.9022 3.44169C11.2807 2.56317 10.4052 1.88128 9.38523 1.48121C8.36525 1.08114 7.24598 0.980642 6.16727 1.19226C5.08857 1.40389 4.09826 1.91825 3.3201 2.67108C3.08081 2.90581 2.84558 3.14436 2.6145 3.38666L3.7562 4.49285C3.83461 4.56859 3.88801 4.66513 3.90966 4.77025C3.9313 4.87536 3.92021 4.98432 3.87779 5.08334C3.83537 5.18235 3.76352 5.26697 3.67135 5.32647C3.57918 5.38598 3.47082 5.4177 3.36 5.41761H0.56C0.411479 5.41761 0.269041 5.36055 0.16402 5.25898C0.059 5.15742 1.73488e-07 5.01966 1.73488e-07 4.87602V2.16808C-8.70394e-05 2.06091 0.0327092 1.95611 0.0942368 1.86697C0.155764 1.77783 0.243257 1.70835 0.345638 1.66732C0.448019 1.62629 0.560685 1.61557 0.669372 1.6365C0.778059 1.65743 0.877881 1.70908 0.9562 1.78491L1.82 2.62166C2.0454 2.3854 2.2778 2.14777 2.5242 1.90744C3.46366 0.997325 4.66119 0.377216 5.96522 0.125606C7.26926 -0.126003 8.62116 0.00219944 9.84982 0.493987C11.0785 0.985774 12.1287 1.81904 12.8674 2.8883C13.6062 3.95757 14.0004 5.21478 14 6.50079ZM7.28 2.70967C7.13148 2.70967 6.98904 2.76673 6.88402 2.8683C6.779 2.96987 6.72 3.10762 6.72 3.25126V6.50079C6.71997 6.59429 6.74497 6.6862 6.79256 6.76758C6.84016 6.84897 6.90873 6.91705 6.9916 6.9652L9.7916 8.58996C9.85466 8.62659 9.92456 8.65085 9.99732 8.66135C10.0701 8.67185 10.1443 8.66839 10.2156 8.65116C10.287 8.63394 10.3542 8.60329 10.4133 8.56096C10.4724 8.51863 10.5223 8.46545 10.5602 8.40447C10.5981 8.34348 10.6232 8.27588 10.634 8.20551C10.6449 8.13515 10.6413 8.06341 10.6235 7.99439C10.6057 7.92536 10.574 7.86041 10.5302 7.80323C10.4864 7.74605 10.4315 7.69777 10.3684 7.66114L7.84 6.19411V3.25126C7.84 3.10762 7.781 2.96987 7.67598 2.8683C7.57096 2.76673 7.42852 2.70967 7.28 2.70967Z" fill="black"/>
</svg>