<svg xmlns="http://www.w3.org/2000/svg" width="18" height="20" viewBox="0 0 18 20" fill="none">
    <path d="M3 4V15.8C3 16.92 3 17.48 3.218 17.908C3.40974 18.2843 3.71569 18.5903 4.092 18.782C4.519 19 5.079 19 6.197 19H11.803C12.921 19 13.48 19 13.907 18.782C14.284 18.59 14.59 18.284 14.782 17.908C15 17.48 15 16.921 15 15.803V4M3 4H5M3 4H1M15 4H13M15 4H17M5 4H13M5 4C5 3.068 5 2.602 5.152 2.235C5.2524 1.99227 5.39963 1.7717 5.58528 1.58588C5.77093 1.40005 5.99137 1.25262 6.234 1.152C6.602 1 7.068 1 8 1H10C10.932 1 11.398 1 11.765 1.152C12.0078 1.25251 12.2284 1.3999 12.4143 1.58572C12.6001 1.77155 12.7475 1.99218 12.848 2.235C13 2.602 13 3.068 13 4" stroke="#8200FF" stroke-width="1.66667" stroke-linecap="round" stroke-linejoin="round"/>
</svg>