<svg xmlns="http://www.w3.org/2000/svg" width="25" height="25" viewBox="0 0 25 25" fill="none">
    <path d="M20.2325 14.2832C19.9169 14.2832 19.6141 14.4086 19.3909 14.6319C19.1677 14.8552 19.0424 15.1581 19.0424 15.4739V15.9264L17.2809 14.1641C16.659 13.5467 15.8184 13.2003 14.9423 13.2003C14.0662 13.2003 13.2256 13.5467 12.6037 14.1641L11.7706 14.9976L8.81899 12.0445C8.18836 11.4439 7.35103 11.1089 6.48035 11.1089C5.60968 11.1089 4.77235 11.4439 4.14171 12.0445L2.3803 13.8069V7.13862C2.3803 6.82281 2.50569 6.51993 2.72888 6.29662C2.95208 6.07331 3.2548 5.94786 3.57044 5.94786H11.9015C12.2171 5.94786 12.5198 5.8224 12.743 5.59909C12.9662 5.37578 13.0916 5.07291 13.0916 4.7571C13.0916 4.44129 12.9662 4.13842 12.743 3.9151C12.5198 3.69179 12.2171 3.56634 11.9015 3.56634H3.57044C2.6235 3.56634 1.71535 3.9427 1.04576 4.61263C0.376171 5.28257 0 6.19119 0 7.13862V21.4277C0 22.3752 0.376171 23.2838 1.04576 23.9537C1.71535 24.6236 2.6235 25 3.57044 25H17.8522C18.7992 25 19.7073 24.6236 20.3769 23.9537C21.0465 23.2838 21.4227 22.3752 21.4227 21.4277V15.4739C21.4227 15.1581 21.2973 14.8552 21.0741 14.6319C20.8509 14.4086 20.5482 14.2832 20.2325 14.2832ZM3.57044 22.6185C3.2548 22.6185 2.95208 22.493 2.72888 22.2697C2.50569 22.0464 2.3803 21.7435 2.3803 21.4277V17.1767L5.83172 13.7235C6.00657 13.5568 6.23883 13.4638 6.48035 13.4638C6.72188 13.4638 6.95414 13.5568 7.12898 13.7235L10.9018 17.4982L16.0194 22.6185H3.57044ZM19.0424 21.4277C19.0406 21.6557 18.9655 21.877 18.8281 22.0588L13.4606 16.6647L14.2937 15.8312C14.379 15.744 14.4808 15.6748 14.5932 15.6276C14.7056 15.5803 14.8263 15.556 14.9483 15.556C15.0702 15.556 15.1909 15.5803 15.3033 15.6276C15.4157 15.6748 15.5175 15.744 15.6028 15.8312L19.0424 19.2963V21.4277ZM24.648 3.91166L21.0775 0.339382C20.9643 0.230975 20.8309 0.145996 20.6848 0.089323C20.395 -0.0297743 20.07 -0.0297743 19.7803 0.089323C19.6342 0.145996 19.5007 0.230975 19.3875 0.339382L15.8171 3.91166C15.593 4.13588 15.467 4.44 15.467 4.7571C15.467 5.0742 15.593 5.37831 15.8171 5.60254C16.0412 5.82676 16.3451 5.95273 16.6621 5.95273C16.979 5.95273 17.283 5.82676 17.5071 5.60254L19.0424 4.05455V10.7109C19.0424 11.0267 19.1677 11.3296 19.3909 11.5529C19.6141 11.7762 19.9169 11.9017 20.2325 11.9017C20.5482 11.9017 20.8509 11.7762 21.0741 11.5529C21.2973 11.3296 21.4227 11.0267 21.4227 10.7109V4.05455L22.9579 5.60254C23.0686 5.71414 23.2002 5.80273 23.3452 5.86318C23.4903 5.92364 23.6458 5.95476 23.8029 5.95476C23.9601 5.95476 24.1156 5.92364 24.2607 5.86318C24.4057 5.80273 24.5373 5.71414 24.648 5.60254C24.7595 5.49184 24.848 5.36014 24.9085 5.21504C24.9689 5.06993 25 4.91429 25 4.7571C25 4.5999 24.9689 4.44426 24.9085 4.29916C24.848 4.15405 24.7595 4.02236 24.648 3.91166Z" fill="white"/>
</svg>