<svg xmlns="http://www.w3.org/2000/svg" width="100" height="132" viewBox="0 0 139 171" fill="none">
    <path d="M56.0001 0.833496L56.8093 0.881913C58.3532 1.06399 59.7908 1.76088 60.8901 2.86016C61.9894 3.95944 62.6863 5.397 62.8683 6.94091L62.9167 7.75016V35.4168L62.9513 36.4543C63.1988 39.7479 64.6166 42.8441 66.9482 45.1834C69.2798 47.5226 72.3715 48.9504 75.6642 49.2087L76.7501 49.2502H104.417L105.226 49.2986C106.77 49.4807 108.207 50.1776 109.307 51.2768C110.406 52.3761 111.103 53.8137 111.285 55.3576L111.333 56.1668V118.417C111.334 123.71 109.311 128.802 105.681 132.653C102.05 136.504 97.0843 138.822 91.8008 139.132L90.5834 139.167H21.4167C16.124 139.167 11.0313 137.145 7.18044 133.514C3.32962 129.883 1.01184 124.918 0.701332 119.634L0.666748 118.417V21.5835C0.666453 16.2908 2.68866 11.198 6.31963 7.34719C9.95059 3.49637 14.9158 1.17859 20.1994 0.86808L21.4167 0.833496H56.0001Z" fill="#2B3138" fill-opacity="0.4"/>
    <path d="M104.417 35.4167H76.7501L76.7432 7.74316L104.417 35.4167Z" fill="#2B3138" fill-opacity="0.4"/>
    <circle cx="103" cy="135" r="36" fill="#8200FF"/>
    <path d="M92 141.5V144.5C92 145.296 92.3161 146.059 92.8787 146.621C93.4413 147.184 94.2044 147.5 95 147.5H113C113.796 147.5 114.559 147.184 115.121 146.621C115.684 146.059 116 145.296 116 144.5V141.5" stroke="white" stroke-width="4" stroke-linecap="round" stroke-linejoin="round"/>
    <path d="M96.5 129.5L104 122L111.5 129.5" stroke="white" stroke-width="4" stroke-linecap="round" stroke-linejoin="round"/>
    <path d="M104 122V140" stroke="white" stroke-width="4" stroke-linecap="round" stroke-linejoin="round"/>
</svg>