<svg xmlns="http://www.w3.org/2000/svg" width="16" height="16" viewBox="0 0 16 16" fill="none">
    <mask id="mask0_850_11215" style="mask-type:luminance" maskUnits="userSpaceOnUse" x="0" y="0" width="16" height="16">
        <path d="M8 15C11.866 15 15 11.866 15 8C15 4.13401 11.866 1 8 1C4.13401 1 1 4.13401 1 8C1 11.866 4.13401 15 8 15Z" stroke="white" stroke-width="1.66667" stroke-linecap="round" stroke-linejoin="round"/>
        <path d="M8 1C9.85652 1 11.637 1.7375 12.9497 3.05025C14.2625 4.36301 15 6.14348 15 8C15 9.85652 14.2625 11.637 12.9497 12.9497C11.637 14.2625 9.85652 15 8 15V8V1Z" fill="#555555" stroke="white" stroke-width="1.66667" stroke-linecap="round" stroke-linejoin="round"/>
    </mask>
    <g mask="url(#mask0_850_11215)">
        <path d="M-0.399902 -0.399902H16.4001V16.4001H-0.399902V-0.399902Z" fill="#8200FF"/>
    </g>
</svg>